<svg xmlns="http://www.w3.org/2000/svg" viewBox="0 0 14.42 14.42"><defs><style>.cls-1{fill:#00c878;}</style></defs><title>Asset 2Icon contact</title><g id="Layer_2" data-name="Layer 2"><g id="Layer_1-2" data-name="Layer 1"><path class="cls-1" d="M8.58,7.2A1.34,1.34,0,1,1,7.25,5.87,1.34,1.34,0,0,1,8.58,7.2Z"/><path class="cls-1" d="M8.9,3.77H5.52A1.74,1.74,0,0,0,3.78,5.52V8.89a1.75,1.75,0,0,0,1.74,1.75H8.9a1.75,1.75,0,0,0,1.74-1.75V5.52A1.74,1.74,0,0,0,8.9,3.77ZM7.25,9.29A2.09,2.09,0,1,1,9.33,7.2,2.1,2.1,0,0,1,7.25,9.29Zm2.2-3.82A.49.49,0,0,1,9,5a.5.5,0,1,1,1,0A.49.49,0,0,1,9.45,5.47Z"/><path class="cls-1" d="M7.21,0a7.21,7.21,0,1,0,7.21,7.21A7.21,7.21,0,0,0,7.21,0Zm4.23,8.89A2.54,2.54,0,0,1,8.9,11.43H5.52A2.55,2.55,0,0,1,3,8.89V5.52A2.54,2.54,0,0,1,5.52,3H8.9a2.54,2.54,0,0,1,2.54,2.54Z"/></g></g></svg>