<svg xmlns="http://www.w3.org/2000/svg" viewBox="0 0 14.42 14.42" fill="#00c878" xmlns:v="https://vecta.io/nano"><path d="M8.58 7.2a1.34 1.34 0 1 1-1.33-1.33A1.34 1.34 0 0 1 8.58 7.2zm.32-3.43H5.52a1.74 1.74 0 0 0-1.74 1.75v3.37a1.75 1.75 0 0 0 1.74 1.75H8.9a1.75 1.75 0 0 0 1.74-1.75V5.52A1.74 1.74 0 0 0 8.9 3.77zM7.25 9.29A2.09 2.09 0 1 1 9.33 7.2a2.1 2.1 0 0 1-2.08 2.09zm2.2-3.82A.49.49 0 0 1 9 5a.5.5 0 1 1 1 0 .49.49 0 0 1-.55.47zM7.21 0a7.21 7.21 0 1 0 7.21 7.21A7.21 7.21 0 0 0 7.21 0zm4.23 8.89a2.54 2.54 0 0 1-2.54 2.54H5.52A2.55 2.55 0 0 1 3 8.89V5.52A2.54 2.54 0 0 1 5.52 3H8.9a2.54 2.54 0 0 1 2.54 2.54z"/></svg>