<svg xmlns="http://www.w3.org/2000/svg" viewBox="0 0 13.86 14.42"><defs><style>.cls-1{fill:#00c878;}</style></defs><title>Asset 4Icon contact</title><g id="Layer_2" data-name="Layer 2"><g id="Layer_1-2" data-name="Layer 1"><path class="cls-1" d="M0,3.55A3.8,3.8,0,0,1,1.05,1c.23-.25.47-.51.72-.76a.55.55,0,0,1,.9,0Q3.86,1.46,5,2.69a.62.62,0,0,1,0,1L3.73,5A1.3,1.3,0,0,0,3.6,6.84a17.73,17.73,0,0,0,3.84,3.94,1.15,1.15,0,0,0,1.66-.14l1.25-1.32a.57.57,0,0,1,1,0l2.29,2.4a.63.63,0,0,1,0,1A5.58,5.58,0,0,1,12.08,14a3.31,3.31,0,0,1-2.56.22,13.71,13.71,0,0,1-5.93-3.87A15,15,0,0,1,.52,5.72,5.37,5.37,0,0,1,0,3.55Z"/></g></g></svg>